# xmcd
#
# Track frame offsets:
#	150
#	13077
#	28205
#	37270
#	52140
#	67287
#	80615
#	92485
#	102785
#	113662
#	127270
#	139445
#	153247
#	165312
#	177092
#	186957
#	197970
#	207487
#	218810
#	231892
#	244110
#	252692
#	268387
#	282942
#	294310
#	307532
#
# Disc length: 4227 seconds
#
# Revision: 1
# Processed by: cddbd v1.4PL0 Copyright (c) Steve Scherf et al.
# Submitted via: audiograbber 1.80
#
DISCID=9210811a
DTITLE=dick curless - a tomstone every mile disc 6
DYEAR=1900
DGENRE=
TTITLE0=the heartline special 1967
TTITLE1=secret of your heart 1996
TTITLE2=i ain't got nobody 1968
TTITLE3=bummin' on track e 1968
TTITLE4=secret of your heart 1968
TTITLE5=the wild side of town 1968
TTITLE6=nobody knows you, when you're down and out 1968
TTITLE7=things 1968
TTITLE8=easy woman 1968
TTITLE9=down on the corner at kelly's 1968
TTITLE10=tonight's the night my angels halo fell 1968
TTITLE11=maybe i'll cry over you 1968
TTITLE12=it's nothing to me 1996
TTITLE13=the good old days 1996
TTITLE14=over the edge 1968
TTITLE15=blue is a beautiful color 1968
TTITLE16=a good year for the wine 1968
TTITLE17=tears instead of cheers 1968
TTITLE18=all i need is you 1968
TTITLE19=a brand new bed of roses 1972
TTITLE20=be here to love me 1996
TTITLE21=kentucky boy 1996
TTITLE22=fanning the flame 1996
TTITLE23=the sun 1996
TTITLE24=somebody else 1996
TTITLE25=jamaica farewell 1996
EXTD=
EXTT0=
EXTT1=
EXTT2=
EXTT3=
EXTT4=
EXTT5=
EXTT6=
EXTT7=
EXTT8=
EXTT9=
EXTT10=
EXTT11=
EXTT12=
EXTT13=
EXTT14=
EXTT15=
EXTT16=
EXTT17=
EXTT18=
EXTT19=
EXTT20=
EXTT21=
EXTT22=
EXTT23=
EXTT24=
EXTT25=
PLAYORDER=
